<svg width="40" height="40" viewBox="0 0 40 40" fill="none" xmlns="http://www.w3.org/2000/svg">
<circle cx="20" cy="20" r="20" fill="#0036F6"/>
<rect x="9.80261" y="13.9355" width="18.33" height="14.67" rx="4" transform="rotate(-15.62 9.80261 13.9355)" fill="white" fill-opacity="0.22"/>
<path fill-rule="evenodd" clip-rule="evenodd" d="M15.0625 15.431L18.5938 14.4437C21.9228 13.5129 23.5878 13.0474 24.9109 13.7931C25.864 14.329 26.372 15.3425 26.9291 17.1103L9.31875 22.0339C8.8782 20.2334 8.7869 19.1034 9.32393 18.1509C10.0684 16.8272 11.7334 16.3617 15.0625 15.431ZM22.5429 28.5687L19.0116 29.556C15.6825 30.4867 14.0175 30.9522 12.6945 30.2066C11.3708 29.4621 10.9053 27.7971 9.97455 24.468C9.86546 24.0778 9.76278 23.7106 9.66779 23.364L27.3205 18.4286C27.419 18.7742 27.5217 19.1414 27.6308 19.5316C28.5616 22.8607 29.0271 24.5257 28.2814 25.8488C27.5369 27.1724 25.8719 27.6379 22.5429 28.5687ZM14.308 26.3499C14.1324 26.399 13.9835 26.5158 13.894 26.6747C13.8045 26.8336 13.7819 27.0215 13.831 27.1971C13.8801 27.3727 13.9969 27.5216 14.1558 27.6111C14.3147 27.7005 14.5026 27.7232 14.6782 27.6741L18.2094 26.6868C18.385 26.6377 18.5339 26.5209 18.6234 26.362C18.7129 26.2031 18.7355 26.0152 18.6864 25.8396C18.6373 25.664 18.5205 25.5151 18.3616 25.4256C18.2027 25.3362 18.0148 25.3135 17.8392 25.3626L14.308 26.3499ZM20.0462 24.7456C19.8706 24.7947 19.7217 24.9115 19.6323 25.0704C19.5428 25.2293 19.5202 25.4172 19.5692 25.5928C19.6183 25.7684 19.7352 25.9173 19.8941 26.0068C20.053 26.0962 20.2409 26.1189 20.4165 26.0698L21.7407 25.6996C21.9163 25.6505 22.0652 25.5336 22.1547 25.3747C22.2441 25.2158 22.2668 25.0279 22.2177 24.8523C22.1686 24.6767 22.0517 24.5278 21.8929 24.4384C21.734 24.3489 21.5461 24.3262 21.3705 24.3753L20.0462 24.7456Z" fill="white"/>
</svg>
