<svg width="22" height="22" viewBox="0 0 22 22" fill="none" xmlns="http://www.w3.org/2000/svg">
<circle cx="11" cy="11" r="11" fill="black"/>
<path d="M14.9983 17.4383C14.2229 18.1771 13.3764 18.0604 12.5614 17.7105C11.699 17.3528 10.9079 17.3372 9.99799 17.7105C8.85868 18.1927 8.25738 18.0527 7.57696 17.4383C3.71596 13.5266 4.28562 7.56955 8.6688 7.3518C9.7369 7.40624 10.4806 7.92728 11.1057 7.97394C12.0393 7.7873 12.9333 7.2507 13.9302 7.32069C15.1249 7.41401 16.0268 7.88062 16.6202 8.72052C14.1517 10.1748 14.7372 13.371 17 14.2654C16.549 15.4319 15.9635 16.5906 14.9904 17.4461L14.9983 17.4383ZM11.0265 7.30514C10.9079 5.57091 12.3399 4.13998 13.9856 4C14.215 6.00641 12.1342 7.49956 11.0265 7.30514Z" fill="white"/>
</svg>
